<svg version="1.0" xmlns="http://www.w3.org/2000/svg"
 width="1477.000000pt" height="1477.000000pt" viewBox="0 0 1477.000000 1477.000000"
 preserveAspectRatio="xMidYMid meet">
<g transform="translate(0.000000,1477.000000) scale(0.100000,-0.100000)"
fill="#000000" stroke="none">
<path d="M6630 14700 l0 -30 -240 0 -240 0 0 -30 0 -30 -180 0 -180 0 0 -30 0
-30 -120 0 -120 0 0 -30 0 -30 -120 0 -120 0 0 -30 0 -30 -90 0 -90 0 0 -30 0
-30 -90 0 -90 0 0 -30 0 -30 -90 0 -90 0 0 -30 0 -30 -90 0 -90 0 0 -30 0 -30
-60 0 -60 0 0 -30 0 -30 -60 0 -60 0 0 -30 0 -30 -90 0 -90 0 0 -30 0 -30 -60
0 -60 0 0 -30 0 -30 -60 0 -60 0 0 -30 c0 -27 -3 -30 -30 -30 -27 0 -30 -3
-30 -30 l0 -30 -60 0 -60 0 0 -30 0 -30 -60 0 -60 0 0 -30 0 -30 -60 0 -60 0
0 -30 c0 -27 -3 -30 -30 -30 -27 0 -30 -3 -30 -30 l0 -30 -60 0 -60 0 0 -30
c0 -27 -3 -30 -30 -30 -27 0 -30 -3 -30 -30 l0 -30 -60 0 -60 0 0 -30 c0 -27
-3 -30 -30 -30 -27 0 -30 -3 -30 -30 0 -27 -3 -30 -30 -30 -27 0 -30 -3 -30
-30 l0 -30 -60 0 -60 0 0 -30 c0 -27 -3 -30 -30 -30 -27 0 -30 -3 -30 -30 0
-27 -3 -30 -30 -30 -27 0 -30 -3 -30 -30 l0 -30 -60 0 -60 0 0 -30 c0 -27 -3
-30 -30 -30 -27 0 -30 -3 -30 -30 0 -27 -3 -30 -30 -30 -27 0 -30 -3 -30 -30
0 -27 -3 -30 -30 -30 -27 0 -30 -3 -30 -30 0 -27 -3 -30 -30 -30 -27 0 -30 -3
-30 -30 0 -27 -3 -30 -30 -30 -27 0 -30 -3 -30 -30 0 -27 -3 -30 -30 -30 -27
0 -30 -3 -30 -30 0 -27 -3 -30 -30 -30 -27 0 -30 -3 -30 -30 0 -27 -3 -30 -30
-30 -27 0 -30 -3 -30 -30 0 -27 -3 -30 -30 -30 -27 0 -30 -3 -30 -30 0 -27 -3
-30 -30 -30 -27 0 -30 -3 -30 -30 0 -27 -3 -30 -30 -30 -27 0 -30 -3 -30 -30
0 -27 -3 -30 -30 -30 -27 0 -30 -3 -30 -30 0 -27 -3 -30 -30 -30 -27 0 -30 -3
-30 -30 0 -27 -3 -30 -30 -30 -27 0 -30 -3 -30 -30 0 -27 -3 -30 -30 -30 -27
0 -30 -3 -30 -30 0 -27 -3 -30 -30 -30 l-30 0 0 -60 0 -60 -30 0 c-27 0 -30
-3 -30 -30 0 -27 -3 -30 -30 -30 -27 0 -30 -3 -30 -30 0 -27 -3 -30 -30 -30
l-30 0 0 -60 0 -60 -30 0 c-27 0 -30 -3 -30 -30 0 -27 -3 -30 -30 -30 -27 0
-30 -3 -30 -30 0 -27 -3 -30 -30 -30 l-30 0 0 -60 0 -60 -30 0 c-27 0 -30 -3
-30 -30 0 -27 -3 -30 -30 -30 l-30 0 0 -60 0 -60 -30 0 c-27 0 -30 -3 -30 -30
0 -27 -3 -30 -30 -30 l-30 0 0 -60 0 -60 -30 0 -30 0 0 -60 0 -60 -30 0 -30 0
0 -60 0 -60 -30 0 c-27 0 -30 -3 -30 -30 0 -27 -3 -30 -30 -30 l-30 0 0 -60 0
-60 -30 0 -30 0 0 -60 0 -60 -30 0 -30 0 0 -90 0 -90 -30 0 -30 0 0 -60 0 -60
-30 0 -30 0 0 -60 0 -60 -30 0 -30 0 0 -90 0 -90 -30 0 -30 0 0 -90 0 -90 -30
0 -30 0 0 -90 0 -90 -30 0 -30 0 0 -90 0 -90 -30 0 -30 0 0 -120 0 -120 -30 0
-30 0 0 -120 0 -120 -30 0 -30 0 0 -180 0 -180 -30 0 -30 0 0 -240 0 -240 -30
0 -30 0 0 -780 0 -780 30 0 30 0 0 -240 0 -240 30 0 30 0 0 -180 0 -180 30 0
30 0 0 -120 0 -120 30 0 30 0 0 -120 0 -120 30 0 30 0 0 -90 0 -90 30 0 30 0
0 -90 0 -90 30 0 30 0 0 -90 0 -90 30 0 30 0 0 -90 0 -90 30 0 30 0 0 -60 0
-60 30 0 30 0 0 -60 0 -60 30 0 30 0 0 -90 0 -90 30 0 30 0 0 -60 0 -60 30 0
30 0 0 -60 0 -60 30 0 c27 0 30 -3 30 -30 0 -27 3 -30 30 -30 l30 0 0 -60 0
-60 30 0 30 0 0 -60 0 -60 30 0 30 0 0 -60 0 -60 30 0 c27 0 30 -3 30 -30 0
-27 3 -30 30 -30 l30 0 0 -60 0 -60 30 0 c27 0 30 -3 30 -30 0 -27 3 -30 30
-30 l30 0 0 -60 0 -60 30 0 c27 0 30 -3 30 -30 0 -27 3 -30 30 -30 27 0 30 -3
30 -30 0 -27 3 -30 30 -30 l30 0 0 -60 0 -60 30 0 c27 0 30 -3 30 -30 0 -27 3
-30 30 -30 27 0 30 -3 30 -30 0 -27 3 -30 30 -30 l30 0 0 -60 0 -60 30 0 c27
0 30 -3 30 -30 0 -27 3 -30 30 -30 27 0 30 -3 30 -30 0 -27 3 -30 30 -30 27 0
30 -3 30 -30 0 -27 3 -30 30 -30 27 0 30 -3 30 -30 0 -27 3 -30 30 -30 27 0
30 -3 30 -30 0 -27 3 -30 30 -30 27 0 30 -3 30 -30 0 -27 3 -30 30 -30 27 0
30 -3 30 -30 0 -27 3 -30 30 -30 27 0 30 -3 30 -30 0 -27 3 -30 30 -30 27 0
30 -3 30 -30 0 -27 3 -30 30 -30 27 0 30 -3 30 -30 0 -27 3 -30 30 -30 27 0
30 -3 30 -30 0 -27 3 -30 30 -30 27 0 30 -3 30 -30 0 -27 3 -30 30 -30 27 0
30 -3 30 -30 0 -27 3 -30 30 -30 27 0 30 -3 30 -30 0 -27 3 -30 30 -30 27 0
30 -3 30 -30 0 -27 3 -30 30 -30 27 0 30 -3 30 -30 l0 -30 60 0 60 0 0 -30 c0
-27 3 -30 30 -30 27 0 30 -3 30 -30 0 -27 3 -30 30 -30 27 0 30 -3 30 -30 l0
-30 60 0 60 0 0 -30 c0 -27 3 -30 30 -30 27 0 30 -3 30 -30 0 -27 3 -30 30
-30 27 0 30 -3 30 -30 l0 -30 60 0 60 0 0 -30 c0 -27 3 -30 30 -30 27 0 30 -3
30 -30 l0 -30 60 0 60 0 0 -30 c0 -27 3 -30 30 -30 27 0 30 -3 30 -30 l0 -30
60 0 60 0 0 -30 0 -30 60 0 60 0 0 -30 0 -30 60 0 60 0 0 -30 c0 -27 3 -30 30
-30 27 0 30 -3 30 -30 l0 -30 60 0 60 0 0 -30 0 -30 60 0 60 0 0 -30 0 -30 90
0 90 0 0 -30 0 -30 60 0 60 0 0 -30 0 -30 60 0 60 0 0 -30 0 -30 90 0 90 0 0
-30 0 -30 90 0 90 0 0 -30 0 -30 90 0 90 0 0 -30 0 -30 90 0 90 0 0 -30 0 -30
120 0 120 0 0 -30 0 -30 120 0 120 0 0 -30 0 -30 180 0 180 0 0 -30 0 -30 240
0 240 0 0 -30 0 -30 780 0 780 0 0 30 0 30 240 0 240 0 0 30 0 30 180 0 180 0
0 30 0 30 120 0 120 0 0 30 0 30 120 0 120 0 0 30 0 30 90 0 90 0 0 30 0 30
90 0 90 0 0 30 0 30 90 0 90 0 0 30 0 30 90 0 90 0 0 30 0 30 60 0 60 0 0 30
0 30 60 0 60 0 0 30 0 30 90 0 90 0 0 30 0 30 60 0 60 0 0 30 0 30 60 0 60 0
0 30 c0 27 3 30 30 30 27 0 30 3 30 30 l0 30 60 0 60 0 0 30 0 30 60 0 60 0 0
30 0 30 60 0 60 0 0 30 c0 27 3 30 30 30 27 0 30 3 30 30 l0 30 60 0 60 0 0
30 c0 27 3 30 30 30 27 0 30 3 30 30 l0 30 60 0 60 0 0 30 c0 27 3 30 30 30
27 0 30 3 30 30 0 27 3 30 30 30 27 0 30 3 30 30 l0 30 60 0 60 0 0 30 c0 27
3 30 30 30 27 0 30 3 30 30 0 27 3 30 30 30 27 0 30 3 30 30 l0 30 60 0 60 0
0 30 c0 27 3 30 30 30 27 0 30 3 30 30 0 27 3 30 30 30 27 0 30 3 30 30 0 27
3 30 30 30 27 0 30 3 30 30 0 27 3 30 30 30 27 0 30 3 30 30 0 27 3 30 30 30
27 0 30 3 30 30 0 27 3 30 30 30 27 0 30 3 30 30 0 27 3 30 30 30 27 0 30 3
30 30 0 27 3 30 30 30 27 0 30 3 30 30 0 27 3 30 30 30 27 0 30 3 30 30 0 27
3 30 30 30 27 0 30 3 30 30 0 27 3 30 30 30 27 0 30 3 30 30 0 27 3 30 30 30
27 0 30 3 30 30 0 27 3 30 30 30 27 0 30 3 30 30 0 27 3 30 30 30 27 0 30 3
30 30 0 27 3 30 30 30 27 0 30 3 30 30 0 27 3 30 30 30 l30 0 0 60 0 60 30 0
c27 0 30 3 30 30 0 27 3 30 30 30 27 0 30 3 30 30 0 27 3 30 30 30 l30 0 0 60
0 60 30 0 c27 0 30 3 30 30 0 27 3 30 30 30 27 0 30 3 30 30 0 27 3 30 30 30
l30 0 0 60 0 60 30 0 c27 0 30 3 30 30 0 27 3 30 30 30 l30 0 0 60 0 60 30 0
c27 0 30 3 30 30 0 27 3 30 30 30 l30 0 0 60 0 60 30 0 30 0 0 60 0 60 30 0
30 0 0 60 0 60 30 0 c27 0 30 3 30 30 0 27 3 30 30 30 l30 0 0 60 0 60 30 0
30 0 0 60 0 60 30 0 30 0 0 90 0 90 30 0 30 0 0 60 0 60 30 0 30 0 0 60 0 60
30 0 30 0 0 90 0 90 30 0 30 0 0 90 0 90 30 0 30 0 0 90 0 90 30 0 30 0 0 90
0 90 30 0 30 0 0 120 0 120 30 0 30 0 0 120 0 120 30 0 30 0 0 180 0 180 30 0
30 0 0 240 0 240 30 0 30 0 0 780 0 780 -30 0 -30 0 0 240 0 240 -30 0 -30 0
0 180 0 180 -30 0 -30 0 0 120 0 120 -30 0 -30 0 0 120 0 120 -30 0 -30 0 0
90 0 90 -30 0 -30 0 0 90 0 90 -30 0 -30 0 0 90 0 90 -30 0 -30 0 0 90 0 90
-30 0 -30 0 0 60 0 60 -30 0 -30 0 0 60 0 60 -30 0 -30 0 0 90 0 90 -30 0 -30
0 0 60 0 60 -30 0 -30 0 0 60 0 60 -30 0 c-27 0 -30 3 -30 30 0 27 -3 30 -30
30 l-30 0 0 60 0 60 -30 0 -30 0 0 60 0 60 -30 0 -30 0 0 60 0 60 -30 0 c-27
0 -30 3 -30 30 0 27 -3 30 -30 30 l-30 0 0 60 0 60 -30 0 c-27 0 -30 3 -30 30
0 27 -3 30 -30 30 l-30 0 0 60 0 60 -30 0 c-27 0 -30 3 -30 30 0 27 -3 30 -30
30 -27 0 -30 3 -30 30 0 27 -3 30 -30 30 l-30 0 0 60 0 60 -30 0 c-27 0 -30 3
-30 30 0 27 -3 30 -30 30 -27 0 -30 3 -30 30 0 27 -3 30 -30 30 l-30 0 0 60 0
60 -30 0 c-27 0 -30 3 -30 30 0 27 -3 30 -30 30 -27 0 -30 3 -30 30 0 27 -3
30 -30 30 -27 0 -30 3 -30 30 0 27 -3 30 -30 30 -27 0 -30 3 -30 30 0 27 -3
30 -30 30 -27 0 -30 3 -30 30 0 27 -3 30 -30 30 -27 0 -30 3 -30 30 0 27 -3
30 -30 30 -27 0 -30 3 -30 30 0 27 -3 30 -30 30 -27 0 -30 3 -30 30 0 27 -3
30 -30 30 -27 0 -30 3 -30 30 0 27 -3 30 -30 30 -27 0 -30 3 -30 30 0 27 -3
30 -30 30 -27 0 -30 3 -30 30 0 27 -3 30 -30 30 -27 0 -30 3 -30 30 0 27 -3
30 -30 30 -27 0 -30 3 -30 30 0 27 -3 30 -30 30 -27 0 -30 3 -30 30 0 27 -3
30 -30 30 -27 0 -30 3 -30 30 0 27 -3 30 -30 30 -27 0 -30 3 -30 30 l0 30 -60
0 -60 0 0 30 c0 27 -3 30 -30 30 -27 0 -30 3 -30 30 0 27 -3 30 -30 30 -27 0
-30 3 -30 30 l0 30 -60 0 -60 0 0 30 c0 27 -3 30 -30 30 -27 0 -30 3 -30 30 0
27 -3 30 -30 30 -27 0 -30 3 -30 30 l0 30 -60 0 -60 0 0 30 c0 27 -3 30 -30
30 -27 0 -30 3 -30 30 l0 30 -60 0 -60 0 0 30 c0 27 -3 30 -30 30 -27 0 -30 3
-30 30 l0 30 -60 0 -60 0 0 30 0 30 -60 0 -60 0 0 30 0 30 -60 0 -60 0 0 30
c0 27 -3 30 -30 30 -27 0 -30 3 -30 30 l0 30 -60 0 -60 0 0 30 0 30 -60 0 -60
0 0 30 0 30 -90 0 -90 0 0 30 0 30 -60 0 -60 0 0 30 0 30 -60 0 -60 0 0 30 0
30 -90 0 -90 0 0 30 0 30 -90 0 -90 0 0 30 0 30 -90 0 -90 0 0 30 0 30 -90 0
-90 0 0 30 0 30 -120 0 -120 0 0 30 0 30 -120 0 -120 0 0 30 0 30 -180 0 -180
0 0 30 0 30 -240 0 -240 0 0 30 0 30 -780 0 -780 0 0 -30z m1260 -360 l0 -30
240 0 240 0 0 -30 0 -30 180 0 180 0 0 -30 0 -30 120 0 120 0 0 -30 0 -30 120
0 120 0 0 -30 0 -30 90 0 90 0 0 -30 0 -30 90 0 90 0 0 -30 0 -30 90 0 90 0 0
-30 0 -30 90 0 90 0 0 -30 0 -30 60 0 60 0 0 -30 0 -30 60 0 60 0 0 -30 0 -30
90 0 90 0 0 -30 0 -30 60 0 60 0 0 -30 0 -30 60 0 60 0 0 -30 c0 -27 3 -30 30
-30 27 0 30 -3 30 -30 l0 -30 60 0 60 0 0 -30 0 -30 60 0 60 0 0 -30 0 -30 60
0 60 0 0 -30 c0 -27 3 -30 30 -30 27 0 30 -3 30 -30 l0 -30 60 0 60 0 0 -30
c0 -27 3 -30 30 -30 27 0 30 -3 30 -30 l0 -30 60 0 60 0 0 -30 c0 -27 3 -30
30 -30 27 0 30 -3 30 -30 0 -27 3 -30 30 -30 27 0 30 -3 30 -30 l0 -30 60 0
60 0 0 -30 c0 -27 3 -30 30 -30 27 0 30 -3 30 -30 0 -27 3 -30 30 -30 27 0 30
-3 30 -30 l0 -30 60 0 60 0 0 -30 c0 -27 3 -30 30 -30 27 0 30 -3 30 -30 0
-27 3 -30 30 -30 27 0 30 -3 30 -30 0 -27 3 -30 30 -30 27 0 30 -3 30 -30 0
-27 3 -30 30 -30 27 0 30 -3 30 -30 0 -27 3 -30 30 -30 27 0 30 -3 30 -30 0
-27 3 -30 30 -30 27 0 30 -3 30 -30 0 -27 3 -30 30 -30 27 0 30 -3 30 -30 0
-27 3 -30 30 -30 27 0 30 -3 30 -30 0 -27 3 -30 30 -30 27 0 30 -3 30 -30 0
-27 3 -30 30 -30 27 0 30 -3 30 -30 0 -27 3 -30 30 -30 27 0 30 -3 30 -30 0
-27 3 -30 30 -30 27 0 30 -3 30 -30 0 -27 3 -30 30 -30 27 0 30 -3 30 -30 0
-27 3 -30 30 -30 27 0 30 -3 30 -30 0 -27 3 -30 30 -30 l30 0 0 -60 0 -60 30
0 c27 0 30 -3 30 -30 0 -27 3 -30 30 -30 27 0 30 -3 30 -30 0 -27 3 -30 30
-30 l30 0 0 -60 0 -60 30 0 c27 0 30 -3 30 -30 0 -27 3 -30 30 -30 27 0 30 -3
30 -30 0 -27 3 -30 30 -30 l30 0 0 -60 0 -60 30 0 c27 0 30 -3 30 -30 0 -27 3
-30 30 -30 l30 0 0 -60 0 -60 30 0 c27 0 30 -3 30 -30 0 -27 3 -30 30 -30 l30
0 0 -60 0 -60 30 0 30 0 0 -60 0 -60 30 0 30 0 0 -60 0 -60 30 0 c27 0 30 -3
30 -30 0 -27 3 -30 30 -30 l30 0 0 -60 0 -60 30 0 30 0 0 -60 0 -60 30 0 30 0
0 -90 0 -90 30 0 30 0 0 -60 0 -60 30 0 30 0 0 -60 0 -60 30 0 30 0 0 -90 0
-90 30 0 30 0 0 -90 0 -90 30 0 30 0 0 -90 0 -90 30 0 30 0 0 -90 0 -90 30 0
30 0 0 -120 0 -120 30 0 30 0 0 -120 0 -120 30 0 30 0 0 -180 0 -180 30 0 30
0 0 -240 0 -240 30 0 30 0 0 -480 0 -480 -30 0 -30 0 0 -240 0 -240 -30 0 -30
0 0 -180 0 -180 -30 0 -30 0 0 -120 0 -120 -30 0 -30 0 0 -120 0 -120 -30 0
-30 0 0 -90 0 -90 -30 0 -30 0 0 -90 0 -90 -30 0 -30 0 0 -90 0 -90 -30 0 -30
0 0 -90 0 -90 -30 0 -30 0 0 -60 0 -60 -30 0 -30 0 0 -60 0 -60 -30 0 -30 0 0
-90 0 -90 -30 0 -30 0 0 -60 0 -60 -30 0 -30 0 0 -60 0 -60 -30 0 c-27 0 -30
-3 -30 -30 0 -27 -3 -30 -30 -30 l-30 0 0 -60 0 -60 -30 0 -30 0 0 -60 0 -60
-30 0 -30 0 0 -60 0 -60 -30 0 c-27 0 -30 -3 -30 -30 0 -27 -3 -30 -30 -30
l-30 0 0 -60 0 -60 -30 0 c-27 0 -30 -3 -30 -30 0 -27 -3 -30 -30 -30 l-30 0
0 -60 0 -60 -30 0 c-27 0 -30 -3 -30 -30 0 -27 -3 -30 -30 -30 -27 0 -30 -3
-30 -30 0 -27 -3 -30 -30 -30 l-30 0 0 -60 0 -60 -30 0 c-27 0 -30 -3 -30 -30
0 -27 -3 -30 -30 -30 -27 0 -30 -3 -30 -30 0 -27 -3 -30 -30 -30 l-30 0 0 -60
0 -60 -30 0 c-27 0 -30 -3 -30 -30 0 -27 -3 -30 -30 -30 -27 0 -30 -3 -30 -30
0 -27 -3 -30 -30 -30 -27 0 -30 -3 -30 -30 0 -27 -3 -30 -30 -30 -27 0 -30 -3
-30 -30 0 -27 -3 -30 -30 -30 -27 0 -30 -3 -30 -30 0 -27 -3 -30 -30 -30 -27
0 -30 -3 -30 -30 0 -27 -3 -30 -30 -30 -27 0 -30 -3 -30 -30 0 -27 -3 -30 -30
-30 -27 0 -30 -3 -30 -30 0 -27 -3 -30 -30 -30 -27 0 -30 -3 -30 -30 0 -27 -3
-30 -30 -30 -27 0 -30 -3 -30 -30 0 -27 -3 -30 -30 -30 -27 0 -30 -3 -30 -30
0 -27 -3 -30 -30 -30 -27 0 -30 -3 -30 -30 0 -27 -3 -30 -30 -30 -27 0 -30 -3
-30 -30 0 -27 -3 -30 -30 -30 -27 0 -30 -3 -30 -30 0 -27 -3 -30 -30 -30 -27
0 -30 -3 -30 -30 l0 -30 -60 0 -60 0 0 -30 c0 -27 -3 -30 -30 -30 -27 0 -30
-3 -30 -30 0 -27 -3 -30 -30 -30 -27 0 -30 -3 -30 -30 l0 -30 -60 0 -60 0 0
-30 c0 -27 -3 -30 -30 -30 -27 0 -30 -3 -30 -30 0 -27 -3 -30 -30 -30 -27 0
-30 -3 -30 -30 l0 -30 -60 0 -60 0 0 -30 c0 -27 -3 -30 -30 -30 -27 0 -30 -3
-30 -30 l0 -30 -60 0 -60 0 0 -30 c0 -27 -3 -30 -30 -30 -27 0 -30 -3 -30 -30
l0 -30 -60 0 -60 0 0 -30 0 -30 -60 0 -60 0 0 -30 0 -30 -60 0 -60 0 0 -30 c0
-27 -3 -30 -30 -30 -27 0 -30 -3 -30 -30 l0 -30 -60 0 -60 0 0 -30 0 -30 -60
0 -60 0 0 -30 0 -30 -90 0 -90 0 0 -30 0 -30 -60 0 -60 0 0 -30 0 -30 -60 0
-60 0 0 -30 0 -30 -90 0 -90 0 0 -30 0 -30 -90 0 -90 0 0 -30 0 -30 -90 0 -90
0 0 -30 0 -30 -90 0 -90 0 0 -30 0 -30 -120 0 -120 0 0 -30 0 -30 -120 0 -120
0 0 -30 0 -30 -180 0 -180 0 0 -30 0 -30 -240 0 -240 0 0 -30 0 -30 -480 0
-480 0 0 30 0 30 -240 0 -240 0 0 30 0 30 -180 0 -180 0 0 30 0 30 -120 0
-120 0 0 30 0 30 -120 0 -120 0 0 30 0 30 -90 0 -90 0 0 30 0 30 -90 0 -90 0
0 30 0 30 -90 0 -90 0 0 30 0 30 -90 0 -90 0 0 30 0 30 -60 0 -60 0 0 30 0 30
-60 0 -60 0 0 30 0 30 -90 0 -90 0 0 30 0 30 -60 0 -60 0 0 30 0 30 -60 0 -60
0 0 30 c0 27 -3 30 -30 30 -27 0 -30 3 -30 30 l0 30 -60 0 -60 0 0 30 0 30
-60 0 -60 0 0 30 0 30 -60 0 -60 0 0 30 c0 27 -3 30 -30 30 -27 0 -30 3 -30
30 l0 30 -60 0 -60 0 0 30 c0 27 -3 30 -30 30 -27 0 -30 3 -30 30 l0 30 -60 0
-60 0 0 30 c0 27 -3 30 -30 30 -27 0 -30 3 -30 30 0 27 -3 30 -30 30 -27 0
-30 3 -30 30 l0 30 -60 0 -60 0 0 30 c0 27 -3 30 -30 30 -27 0 -30 3 -30 30 0
27 -3 30 -30 30 -27 0 -30 3 -30 30 l0 30 -60 0 -60 0 0 30 c0 27 -3 30 -30
30 -27 0 -30 3 -30 30 0 27 -3 30 -30 30 -27 0 -30 3 -30 30 0 27 -3 30 -30
30 -27 0 -30 3 -30 30 0 27 -3 30 -30 30 -27 0 -30 3 -30 30 0 27 -3 30 -30
30 -27 0 -30 3 -30 30 0 27 -3 30 -30 30 -27 0 -30 3 -30 30 0 27 -3 30 -30
30 -27 0 -30 3 -30 30 0 27 -3 30 -30 30 -27 0 -30 3 -30 30 0 27 -3 30 -30
30 -27 0 -30 3 -30 30 0 27 -3 30 -30 30 -27 0 -30 3 -30 30 0 27 -3 30 -30
30 -27 0 -30 3 -30 30 0 27 -3 30 -30 30 -27 0 -30 3 -30 30 0 27 -3 30 -30
30 -27 0 -30 3 -30 30 0 27 -3 30 -30 30 -27 0 -30 3 -30 30 0 27 -3 30 -30
30 l-30 0 0 60 0 60 -30 0 c-27 0 -30 3 -30 30 0 27 -3 30 -30 30 -27 0 -30 3
-30 30 0 27 -3 30 -30 30 l-30 0 0 60 0 60 -30 0 c-27 0 -30 3 -30 30 0 27 -3
30 -30 30 -27 0 -30 3 -30 30 0 27 -3 30 -30 30 l-30 0 0 60 0 60 -30 0 c-27
0 -30 3 -30 30 0 27 -3 30 -30 30 l-30 0 0 60 0 60 -30 0 c-27 0 -30 3 -30 30
0 27 -3 30 -30 30 l-30 0 0 60 0 60 -30 0 -30 0 0 60 0 60 -30 0 -30 0 0 60 0
60 -30 0 c-27 0 -30 3 -30 30 0 27 -3 30 -30 30 l-30 0 0 60 0 60 -30 0 -30 0
0 60 0 60 -30 0 -30 0 0 90 0 90 -30 0 -30 0 0 60 0 60 -30 0 -30 0 0 60 0 60
-30 0 -30 0 0 90 0 90 -30 0 -30 0 0 90 0 90 -30 0 -30 0 0 90 0 90 -30 0 -30
0 0 90 0 90 -30 0 -30 0 0 120 0 120 -30 0 -30 0 0 120 0 120 -30 0 -30 0 0
180 0 180 -30 0 -30 0 0 240 0 240 -30 0 -30 0 0 480 0 480 30 0 30 0 0 240 0
240 30 0 30 0 0 180 0 180 30 0 30 0 0 120 0 120 30 0 30 0 0 120 0 120 30 0
30 0 0 90 0 90 30 0 30 0 0 90 0 90 30 0 30 0 0 90 0 90 30 0 30 0 0 90 0 90
30 0 30 0 0 60 0 60 30 0 30 0 0 60 0 60 30 0 30 0 0 90 0 90 30 0 30 0 0 60
0 60 30 0 30 0 0 60 0 60 30 0 c27 0 30 3 30 30 0 27 3 30 30 30 l30 0 0 60 0
60 30 0 30 0 0 60 0 60 30 0 30 0 0 60 0 60 30 0 c27 0 30 3 30 30 0 27 3 30
30 30 l30 0 0 60 0 60 30 0 c27 0 30 3 30 30 0 27 3 30 30 30 l30 0 0 60 0 60
30 0 c27 0 30 3 30 30 0 27 3 30 30 30 27 0 30 3 30 30 0 27 3 30 30 30 l30 0
0 60 0 60 30 0 c27 0 30 3 30 30 0 27 3 30 30 30 27 0 30 3 30 30 0 27 3 30
30 30 l30 0 0 60 0 60 30 0 c27 0 30 3 30 30 0 27 3 30 30 30 27 0 30 3 30 30
0 27 3 30 30 30 27 0 30 3 30 30 0 27 3 30 30 30 27 0 30 3 30 30 0 27 3 30
30 30 27 0 30 3 30 30 0 27 3 30 30 30 27 0 30 3 30 30 0 27 3 30 30 30 27 0
30 3 30 30 0 27 3 30 30 30 27 0 30 3 30 30 0 27 3 30 30 30 27 0 30 3 30 30
0 27 3 30 30 30 27 0 30 3 30 30 0 27 3 30 30 30 27 0 30 3 30 30 0 27 3 30
30 30 27 0 30 3 30 30 0 27 3 30 30 30 27 0 30 3 30 30 0 27 3 30 30 30 27 0
30 3 30 30 0 27 3 30 30 30 27 0 30 3 30 30 l0 30 60 0 60 0 0 30 c0 27 3 30
30 30 27 0 30 3 30 30 0 27 3 30 30 30 27 0 30 3 30 30 l0 30 60 0 60 0 0 30
c0 27 3 30 30 30 27 0 30 3 30 30 0 27 3 30 30 30 27 0 30 3 30 30 l0 30 60 0
60 0 0 30 c0 27 3 30 30 30 27 0 30 3 30 30 l0 30 60 0 60 0 0 30 c0 27 3 30
30 30 27 0 30 3 30 30 l0 30 60 0 60 0 0 30 0 30 60 0 60 0 0 30 0 30 60 0 60
0 0 30 c0 27 3 30 30 30 27 0 30 3 30 30 l0 30 60 0 60 0 0 30 0 30 60 0 60 0
0 30 0 30 90 0 90 0 0 30 0 30 60 0 60 0 0 30 0 30 60 0 60 0 0 30 0 30 90 0
90 0 0 30 0 30 90 0 90 0 0 30 0 30 90 0 90 0 0 30 0 30 90 0 90 0 0 30 0 30
120 0 120 0 0 30 0 30 120 0 120 0 0 30 0 30 180 0 180 0 0 30 0 30 240 0 240
0 0 30 0 30 480 0 480 0 0 -30z"/>
<path d="M4170 10680 l0 -210 30 0 30 0 0 -90 0 -90 30 0 30 0 0 -60 0 -60 30
0 30 0 0 -90 0 -90 30 0 30 0 0 -90 0 -90 30 0 30 0 0 -60 0 -60 30 0 30 0 0
-90 0 -90 30 0 30 0 0 -90 0 -90 30 0 30 0 0 -60 0 -60 30 0 30 0 0 -60 0 -60
30 0 30 0 0 -60 0 -60 30 0 c27 0 30 -3 30 -30 0 -27 3 -30 30 -30 l30 0 0
-60 0 -60 30 0 30 0 0 -60 0 -60 30 0 30 0 0 -120 0 -120 30 0 30 0 0 -60 0
-60 30 0 c27 0 30 -3 30 -30 0 -27 3 -30 30 -30 l30 0 0 -60 0 -60 -960 0
-960 0 0 30 0 30 -210 0 -210 0 0 -180 0 -180 60 0 60 0 0 -30 0 -30 1290 0
1290 0 0 390 0 390 -30 0 c-27 0 -30 3 -30 30 0 27 -3 30 -30 30 l-30 0 0 60
0 60 -30 0 -30 0 0 120 0 120 -30 0 -30 0 0 60 0 60 -30 0 -30 0 0 60 0 60
-30 0 c-27 0 -30 3 -30 30 0 27 -3 30 -30 30 l-30 0 0 60 0 60 -30 0 -30 0 0
60 0 60 -30 0 -30 0 0 60 0 60 -30 0 -30 0 0 90 0 90 -30 0 -30 0 0 90 0 90
-30 0 -30 0 0 60 0 60 -30 0 -30 0 0 90 0 90 -30 0 -30 0 0 90 0 90 -30 0 -30
0 0 60 0 60 -30 0 -30 0 0 90 0 90 -30 0 -30 0 0 60 0 60 -180 0 -180 0 0
-210z"/>
<path d="M3090 6210 l0 -360 30 0 30 0 0 -150 0 -150 30 0 30 0 0 -210 0 -210
30 0 30 0 0 -60 0 -60 30 0 30 0 0 -120 0 -120 30 0 30 0 0 -90 0 -90 30 0 30
0 0 -90 0 -90 30 0 30 0 0 -60 0 -60 30 0 30 0 0 -90 0 -90 30 0 30 0 0 -60 0
-60 30 0 c27 0 30 -3 30 -30 0 -27 3 -30 30 -30 27 0 30 -3 30 -30 0 -27 3
-30 30 -30 l30 0 0 -60 0 -60 30 0 30 0 0 -60 0 -60 30 0 c27 0 30 -3 30 -30
0 -27 3 -30 30 -30 27 0 30 -3 30 -30 0 -27 3 -30 30 -30 27 0 30 -3 30 -30 0
-27 3 -30 30 -30 27 0 30 -3 30 -30 0 -27 3 -30 30 -30 27 0 30 -3 30 -30 0
-27 3 -30 30 -30 27 0 30 -3 30 -30 0 -27 3 -30 30 -30 27 0 30 -3 30 -30 0
-27 3 -30 30 -30 27 0 30 -3 30 -30 0 -27 3 -30 30 -30 27 0 30 -3 30 -30 0
-27 3 -30 30 -30 27 0 30 -3 30 -30 0 -27 3 -30 30 -30 27 0 30 -3 30 -30 0
-27 3 -30 30 -30 27 0 30 -3 30 -30 0 -27 3 -30 30 -30 27 0 30 -3 30 -30 l0
-30 60 0 60 0 0 -30 0 -30 60 0 60 0 0 -30 0 -30 120 0 120 0 0 -30 0 -30 510
0 510 0 0 30 0 30 150 0 150 0 0 30 0 30 90 0 90 0 0 30 c0 27 3 30 30 30 27
0 30 3 30 30 l0 30 60 0 60 0 0 30 0 30 120 0 120 0 0 30 0 30 60 0 60 0 0 30
c0 27 3 30 30 30 l30 0 0 60 0 60 60 0 60 0 0 30 c0 27 3 30 30 30 27 0 30 3
30 30 l0 30 60 0 60 0 0 30 c0 27 3 30 30 30 l30 0 0 60 0 60 30 0 c27 0 30 3
30 30 l0 30 60 0 60 0 0 240 0 240 -30 0 c-27 0 -30 3 -30 30 l0 30 -60 0 -60
0 0 30 0 30 -60 0 -60 0 0 30 c0 27 -3 30 -30 30 -27 0 -30 3 -30 30 l0 30
-60 0 -60 0 0 30 0 30 -60 0 -60 0 0 30 c0 27 -3 30 -30 30 -27 0 -30 3 -30
30 0 27 -3 30 -30 30 -27 0 -30 3 -30 30 l0 30 -90 0 -90 0 0 30 0 30 -60 0
-60 0 0 60 0 60 -90 0 -90 0 0 30 c0 27 -3 30 -30 30 -27 0 -30 3 -30 30 l0
30 -60 0 -60 0 0 30 0 30 -60 0 -60 0 0 30 0 30 -60 0 -60 0 0 30 0 30 -60 0
-60 0 0 30 c0 27 -3 30 -30 30 -27 0 -30 3 -30 30 l0 30 -60 0 -60 0 0 30 0
30 -60 0 -60 0 0 60 0 60 -60 0 -60 0 0 30 0 30 -90 0 -90 0 0 30 0 30 -60 0
-60 0 0 30 0 30 -60 0 -60 0 0 30 0 30 -60 0 -60 0 0 30 0 30 -60 0 -60 0 0
30 c0 27 -3 30 -30 30 -27 0 -30 3 -30 30 l0 30 -60 0 -60 0 0 30 c0 27 -3 30
-30 30 -27 0 -30 3 -30 30 l0 30 -60 0 -60 0 0 30 0 30 -90 0 -90 0 0 30 0 30
-60 0 -60 0 0 30 0 30 -60 0 -60 0 0 30 c0 27 -3 30 -30 30 -27 0 -30 3 -30
30 l0 30 -60 0 -60 0 0 30 0 30 -60 0 -60 0 0 30 0 30 -60 0 -60 0 0 30 0 30
-60 0 -60 0 0 30 c0 27 -3 30 -30 30 l-30 0 0 60 0 60 -60 0 -60 0 0 30 0 30
-180 0 -180 0 0 -360z m480 -330 l0 -30 60 0 60 0 0 -30 0 -30 60 0 60 0 0
-30 c0 -27 3 -30 30 -30 27 0 30 -3 30 -30 l0 -30 60 0 60 0 0 -30 0 -30 60 0
60 0 0 -30 0 -30 90 0 90 0 0 -30 0 -30 60 0 60 0 0 -30 c0 -27 3 -30 30 -30
27 0 30 -3 30 -30 l0 -30 60 0 60 0 0 -30 c0 -27 3 -30 30 -30 27 0 30 -3 30
-30 l0 -30 60 0 60 0 0 -30 0 -30 60 0 60 0 0 -30 0 -30 60 0 60 0 0 -30 0
-30 60 0 60 0 0 -30 0 -30 90 0 90 0 0 -30 c0 -27 3 -30 30 -30 27 0 30 -3 30
-30 0 -27 3 -30 30 -30 27 0 30 -3 30 -30 l0 -30 60 0 60 0 0 -30 0 -30 60 0
60 0 0 -30 c0 -27 3 -30 30 -30 27 0 30 -3 30 -30 l0 -30 60 0 60 0 0 -30 0
-30 60 0 60 0 0 -30 0 -30 60 0 60 0 0 -30 0 -30 60 0 60 0 0 -30 c0 -27 3
-30 30 -30 27 0 30 -3 30 -30 l0 -30 60 0 60 0 0 -30 c0 -27 3 -30 30 -30 27
0 30 -3 30 -30 l0 -30 60 0 60 0 0 -30 0 -30 90 0 90 0 0 -30 c0 -27 3 -30 30
-30 27 0 30 -3 30 -30 0 -27 3 -30 30 -30 27 0 30 -3 30 -30 l0 -30 60 0 60 0
0 -30 0 -30 60 0 60 0 0 -30 c0 -27 3 -30 30 -30 27 0 30 -3 30 -30 0 -27 3
-30 30 -30 l30 0 0 -60 0 -60 -60 0 -60 0 0 -30 c0 -27 -3 -30 -30 -30 -27 0
-30 -3 -30 -30 l0 -30 -60 0 -60 0 0 -30 c0 -27 -3 -30 -30 -30 l-30 0 0 -60
0 -60 -60 0 -60 0 0 -30 0 -30 -120 0 -120 0 0 -30 0 -30 -60 0 -60 0 0 -30
c0 -27 -3 -30 -30 -30 -27 0 -30 -3 -30 -30 l0 -30 -90 0 -90 0 0 -30 0 -30
-480 0 -480 0 0 30 0 30 -60 0 -60 0 0 30 0 30 -60 0 -60 0 0 30 c0 27 -3 30
-30 30 -27 0 -30 3 -30 30 0 27 -3 30 -30 30 -27 0 -30 3 -30 30 0 27 -3 30
-30 30 -27 0 -30 3 -30 30 0 27 -3 30 -30 30 -27 0 -30 3 -30 30 0 27 -3 30
-30 30 -27 0 -30 3 -30 30 0 27 -3 30 -30 30 -27 0 -30 3 -30 30 0 27 -3 30
-30 30 -27 0 -30 3 -30 30 0 27 -3 30 -30 30 -27 0 -30 3 -30 30 0 27 -3 30
-30 30 -27 0 -30 3 -30 30 0 27 -3 30 -30 30 -27 0 -30 3 -30 30 0 27 -3 30
-30 30 -27 0 -30 3 -30 30 0 27 -3 30 -30 30 l-30 0 0 60 0 60 -30 0 -30 0 0
60 0 60 -30 0 c-27 0 -30 3 -30 30 0 27 -3 30 -30 30 -27 0 -30 3 -30 30 0 27
-3 30 -30 30 l-30 0 0 60 0 60 -30 0 -30 0 0 90 0 90 -30 0 -30 0 0 60 0 60
-30 0 -30 0 0 90 0 90 -30 0 -30 0 0 90 0 90 -30 0 -30 0 0 120 0 120 -30 0
-30 0 0 60 0 60 -30 0 -30 0 0 120 0 120 -30 0 -30 0 0 120 0 120 30 0 c27 0
30 -3 30 -30z"/>
<path d="M7470 6330 l0 -180 30 0 c27 0 30 -3 30 -30 0 -27 3 -30 30 -30 27 0
30 -3 30 -30 0 -27 3 -30 30 -30 l30 0 0 -60 0 -60 30 0 c27 0 30 -3 30 -30 0
-27 3 -30 30 -30 27 0 30 -3 30 -30 0 -27 3 -30 30 -30 27 0 30 -3 30 -30 0
-27 3 -30 30 -30 l30 0 0 -60 0 -60 30 0 c27 0 30 -3 30 -30 0 -27 3 -30 30
-30 27 0 30 -3 30 -30 0 -27 3 -30 30 -30 l30 0 0 -60 0 -60 30 0 c27 0 30 -3
30 -30 0 -27 3 -30 30 -30 l30 0 0 -60 0 -60 30 0 c27 0 30 -3 30 -30 0 -27 3
-30 30 -30 l30 0 0 -60 0 -60 30 0 c27 0 30 -3 30 -30 0 -27 3 -30 30 -30 27
0 30 -3 30 -30 0 -27 3 -30 30 -30 l30 0 0 -60 0 -60 30 0 c27 0 30 -3 30 -30
0 -27 3 -30 30 -30 l30 0 0 -60 0 -60 30 0 c27 0 30 -3 30 -30 0 -27 3 -30 30
-30 l30 0 0 -60 0 -60 30 0 c27 0 30 -3 30 -30 0 -27 3 -30 30 -30 27 0 30 -3
30 -30 0 -27 3 -30 30 -30 27 0 30 -3 30 -30 0 -27 3 -30 30 -30 27 0 30 -3
30 -30 0 -27 3 -30 30 -30 l30 0 0 -60 0 -60 30 0 c27 0 30 -3 30 -30 0 -27 3
-30 30 -30 l30 0 0 -60 0 -60 30 0 c27 0 30 -3 30 -30 0 -27 3 -30 30 -30 27
0 30 -3 30 -30 0 -27 3 -30 30 -30 27 0 30 -3 30 -30 0 -27 3 -30 30 -30 l30
0 0 -60 0 -60 180 0 180 0 0 210 0 210 -30 0 -30 0 0 60 0 60 -60 0 -60 0 0
30 c0 27 -3 30 -30 30 l-30 0 0 60 0 60 -30 0 c-27 0 -30 3 -30 30 0 27 -3 30
-30 30 l-30 0 0 60 0 60 -30 0 c-27 0 -30 3 -30 30 0 27 -3 30 -30 30 -27 0
-30 3 -30 30 0 27 -3 30 -30 30 -27 0 -30 3 -30 30 0 27 -3 30 -30 30 -27 0
-30 3 -30 30 0 27 -3 30 -30 30 l-30 0 0 60 0 60 -30 0 c-27 0 -30 3 -30 30 0
27 -3 30 -30 30 l-30 0 0 60 0 60 -30 0 c-27 0 -30 3 -30 30 0 27 -3 30 -30
30 l-30 0 0 60 0 60 -30 0 c-27 0 -30 3 -30 30 0 27 -3 30 -30 30 -27 0 -30 3
-30 30 0 27 -3 30 -30 30 l-30 0 0 60 0 60 -30 0 c-27 0 -30 3 -30 30 0 27 -3
30 -30 30 l-30 0 0 60 0 60 -30 0 c-27 0 -30 3 -30 30 0 27 -3 30 -30 30 l-30
0 0 60 0 60 -30 0 c-27 0 -30 3 -30 30 0 27 -3 30 -30 30 -27 0 -30 3 -30 30
0 27 -3 30 -30 30 -27 0 -30 3 -30 30 l0 30 390 0 390 0 0 -30 0 -30 1140 0
1140 0 0 180 0 180 -990 0 -990 0 0 30 0 30 -480 0 -480 0 0 30 0 30 -150 0
-150 0 0 30 0 30 -60 0 -60 0 0 30 0 30 -240 0 -240 0 0 -180z"/>
</g>
</svg>
